<svg width="22" height="22" viewBox="0 0 22 22" fill="none" xmlns="http://www.w3.org/2000/svg">
    <path
        d="M0.5 1.66667C0.5 1.35725 0.622916 1.0605 0.841709 0.841709C1.0605 0.622916 1.35725 0.5 1.66667 0.5H5.16667C5.47609 0.5 5.77283 0.622916 5.99162 0.841709C6.21042 1.0605 6.33333 1.35725 6.33333 1.66667V5.16667C6.33333 5.47609 6.21042 5.77283 5.99162 5.99162C5.77283 6.21042 5.47609 6.33333 5.16667 6.33333H1.66667C1.35725 6.33333 1.0605 6.21042 0.841709 5.99162C0.622916 5.77283 0.5 5.47609 0.5 5.16667V1.66667ZM0.5 9.25C0.5 8.94058 0.622916 8.64383 0.841709 8.42504C1.0605 8.20625 1.35725 8.08333 1.66667 8.08333H5.16667C5.47609 8.08333 5.77283 8.20625 5.99162 8.42504C6.21042 8.64383 6.33333 8.94058 6.33333 9.25V12.75C6.33333 13.0594 6.21042 13.3562 5.99162 13.575C5.77283 13.7937 5.47609 13.9167 5.16667 13.9167H1.66667C1.35725 13.9167 1.0605 13.7937 0.841709 13.575C0.622916 13.3562 0.5 13.0594 0.5 12.75V9.25ZM0.5 16.8333C0.5 16.5239 0.622916 16.2272 0.841709 16.0084C1.0605 15.7896 1.35725 15.6667 1.66667 15.6667H5.16667C5.47609 15.6667 5.77283 15.7896 5.99162 16.0084C6.21042 16.2272 6.33333 16.5239 6.33333 16.8333V20.3333C6.33333 20.6428 6.21042 20.9395 5.99162 21.1583C5.77283 21.3771 5.47609 21.5 5.16667 21.5H1.66667C1.35725 21.5 1.0605 21.3771 0.841709 21.1583C0.622916 20.9395 0.5 20.6428 0.5 20.3333V16.8333ZM8.08333 1.66667C8.08333 1.35725 8.20625 1.0605 8.42504 0.841709C8.64383 0.622916 8.94058 0.5 9.25 0.5H12.75C13.0594 0.5 13.3562 0.622916 13.575 0.841709C13.7937 1.0605 13.9167 1.35725 13.9167 1.66667V5.16667C13.9167 5.47609 13.7937 5.77283 13.575 5.99162C13.3562 6.21042 13.0594 6.33333 12.75 6.33333H9.25C8.94058 6.33333 8.64383 6.21042 8.42504 5.99162C8.20625 5.77283 8.08333 5.47609 8.08333 5.16667V1.66667ZM8.08333 9.25C8.08333 8.94058 8.20625 8.64383 8.42504 8.42504C8.64383 8.20625 8.94058 8.08333 9.25 8.08333H12.75C13.0594 8.08333 13.3562 8.20625 13.575 8.42504C13.7937 8.64383 13.9167 8.94058 13.9167 9.25V12.75C13.9167 13.0594 13.7937 13.3562 13.575 13.575C13.3562 13.7937 13.0594 13.9167 12.75 13.9167H9.25C8.94058 13.9167 8.64383 13.7937 8.42504 13.575C8.20625 13.3562 8.08333 13.0594 8.08333 12.75V9.25ZM8.08333 16.8333C8.08333 16.5239 8.20625 16.2272 8.42504 16.0084C8.64383 15.7896 8.94058 15.6667 9.25 15.6667H12.75C13.0594 15.6667 13.3562 15.7896 13.575 16.0084C13.7937 16.2272 13.9167 16.5239 13.9167 16.8333V20.3333C13.9167 20.6428 13.7937 20.9395 13.575 21.1583C13.3562 21.3771 13.0594 21.5 12.75 21.5H9.25C8.94058 21.5 8.64383 21.3771 8.42504 21.1583C8.20625 20.9395 8.08333 20.6428 8.08333 20.3333V16.8333ZM15.6667 1.66667C15.6667 1.35725 15.7896 1.0605 16.0084 0.841709C16.2272 0.622916 16.5239 0.5 16.8333 0.5H20.3333C20.6428 0.5 20.9395 0.622916 21.1583 0.841709C21.3771 1.0605 21.5 1.35725 21.5 1.66667V5.16667C21.5 5.47609 21.3771 5.77283 21.1583 5.99162C20.9395 6.21042 20.6428 6.33333 20.3333 6.33333H16.8333C16.5239 6.33333 16.2272 6.21042 16.0084 5.99162C15.7896 5.77283 15.6667 5.47609 15.6667 5.16667V1.66667ZM15.6667 9.25C15.6667 8.94058 15.7896 8.64383 16.0084 8.42504C16.2272 8.20625 16.5239 8.08333 16.8333 8.08333H20.3333C20.6428 8.08333 20.9395 8.20625 21.1583 8.42504C21.3771 8.64383 21.5 8.94058 21.5 9.25V12.75C21.5 13.0594 21.3771 13.3562 21.1583 13.575C20.9395 13.7937 20.6428 13.9167 20.3333 13.9167H16.8333C16.5239 13.9167 16.2272 13.7937 16.0084 13.575C15.7896 13.3562 15.6667 13.0594 15.6667 12.75V9.25ZM15.6667 16.8333C15.6667 16.5239 15.7896 16.2272 16.0084 16.0084C16.2272 15.7896 16.5239 15.6667 16.8333 15.6667H20.3333C20.6428 15.6667 20.9395 15.7896 21.1583 16.0084C21.3771 16.2272 21.5 16.5239 21.5 16.8333V20.3333C21.5 20.6428 21.3771 20.9395 21.1583 21.1583C20.9395 21.3771 20.6428 21.5 20.3333 21.5H16.8333C16.5239 21.5 16.2272 21.3771 16.0084 21.1583C15.7896 20.9395 15.6667 20.6428 15.6667 20.3333V16.8333Z"
        fill="black" />
</svg>
    